<svg width="62" height="20" viewBox="0 0 62 20" fill="none" xmlns="http://www.w3.org/2000/svg">
<path d="M14.0805 17C12.664 18.4167 11.014 19.125 9.13082 19.125C7.96422 19.125 6.86428 18.8917 5.83101 18.425C4.8144 17.9584 3.92279 17.3167 3.15616 16.5C2.4062 15.6834 1.80624 14.725 1.35626 13.625C0.922954 12.5084 0.706299 11.3084 0.706299 10.025C0.706299 8.80837 0.922954 7.6667 1.35626 6.60003C1.80624 5.5167 2.41454 4.57503 3.18116 3.77503C3.96445 2.95836 4.88106 2.3167 5.931 1.85003C6.98094 1.3667 8.12255 1.12503 9.35581 1.12503C11.0224 1.12503 12.4473 1.47503 13.6306 2.17503C14.8305 2.87503 15.7305 3.8167 16.3304 5.00003L13.7556 6.90003C13.3056 6.0167 12.6723 5.3417 11.8557 4.87503C11.0557 4.40836 10.1808 4.17503 9.23082 4.17503C8.48086 4.17503 7.78923 4.33336 7.15593 4.65003C6.5393 4.9667 6.006 5.40003 5.55603 5.95003C5.12272 6.50003 4.78107 7.13337 4.53108 7.85003C4.29776 8.5667 4.1811 9.32503 4.1811 10.125C4.1811 10.9584 4.31443 11.7417 4.58108 12.475C4.84773 13.1917 5.21438 13.8167 5.68102 14.35C6.14766 14.8834 6.69763 15.3084 7.33092 15.625C7.98089 15.925 8.68085 16.075 9.43081 16.075C11.1474 16.075 12.6973 15.2667 14.0805 13.65V12.4H10.5057V9.87503H16.9304V19H14.0805V17Z" fill="#464646"/>
<path d="M25.6201 19.25C24.5702 19.25 23.6202 19.075 22.7703 18.725C21.9203 18.3584 21.1954 17.8667 20.5954 17.25C19.9954 16.6334 19.5288 15.9167 19.1955 15.1C18.8788 14.2834 18.7205 13.425 18.7205 12.525C18.7205 11.5917 18.8788 10.7167 19.1955 9.90003C19.5121 9.0667 19.9704 8.3417 20.5704 7.72503C21.1704 7.0917 21.8953 6.5917 22.7453 6.22503C23.6119 5.85836 24.5785 5.67503 25.6451 5.67503C26.7117 5.67503 27.6617 5.85836 28.495 6.22503C29.3449 6.5917 30.0616 7.08337 30.6449 7.70003C31.2448 8.3167 31.6948 9.03337 31.9948 9.85003C32.3114 10.6667 32.4697 11.5167 32.4697 12.4C32.4697 12.6167 32.4614 12.825 32.4447 13.025C32.4447 13.225 32.4281 13.3917 32.3948 13.525H22.2703C22.3203 14.0417 22.4453 14.5 22.6453 14.9C22.8453 15.3 23.1036 15.6417 23.4203 15.925C23.7369 16.2084 24.0952 16.425 24.4952 16.575C24.8952 16.725 25.3118 16.8 25.7451 16.8C26.4118 16.8 27.0367 16.6417 27.62 16.325C28.22 15.9917 28.6283 15.5584 28.845 15.025L31.7198 15.825C31.2365 16.825 30.4615 17.65 29.3949 18.3C28.345 18.9334 27.0867 19.25 25.6201 19.25ZM29.0199 11.35C28.9366 10.3667 28.57 9.58337 27.92 9.00003C27.2867 8.40003 26.5117 8.10003 25.5951 8.10003C25.1452 8.10003 24.7202 8.18337 24.3202 8.35003C23.9369 8.50003 23.5952 8.7167 23.2953 9.00003C22.9953 9.28337 22.7453 9.62503 22.5453 10.025C22.362 10.425 22.2537 10.8667 22.2203 11.35H29.0199Z" fill="#464646"/>
<path d="M40.5851 19.25C39.5352 19.25 38.5852 19.075 37.7353 18.725C36.8853 18.3584 36.1604 17.8667 35.5604 17.25C34.9604 16.6334 34.4938 15.9167 34.1605 15.1C33.8438 14.2834 33.6855 13.425 33.6855 12.525C33.6855 11.5917 33.8438 10.7167 34.1605 9.90003C34.4771 9.0667 34.9354 8.3417 35.5354 7.72503C36.1354 7.0917 36.8603 6.5917 37.7103 6.22503C38.5769 5.85836 39.5435 5.67503 40.6101 5.67503C41.6767 5.67503 42.6267 5.85836 43.46 6.22503C44.3099 6.5917 45.0265 7.08337 45.6098 7.70003C46.2098 8.3167 46.6598 9.03337 46.9598 9.85003C47.2764 10.6667 47.4347 11.5167 47.4347 12.4C47.4347 12.6167 47.4264 12.825 47.4097 13.025C47.4097 13.225 47.3931 13.3917 47.3597 13.525H37.2353C37.2853 14.0417 37.4103 14.5 37.6103 14.9C37.8103 15.3 38.0686 15.6417 38.3852 15.925C38.7019 16.2084 39.0602 16.425 39.4602 16.575C39.8601 16.725 40.2768 16.8 40.7101 16.8C41.3767 16.8 42.0017 16.6417 42.585 16.325C43.185 15.9917 43.5933 15.5584 43.8099 15.025L46.6848 15.825C46.2015 16.825 45.4265 17.65 44.3599 18.3C43.31 18.9334 42.0517 19.25 40.5851 19.25ZM43.9849 11.35C43.9016 10.3667 43.5349 9.58337 42.885 9.00003C42.2517 8.40003 41.4767 8.10003 40.5601 8.10003C40.1101 8.10003 39.6852 8.18337 39.2852 8.35003C38.9019 8.50003 38.5602 8.7167 38.2602 9.00003C37.9603 9.28337 37.7103 9.62503 37.5103 10.025C37.327 10.425 37.2186 10.8667 37.1853 11.35H43.9849Z" fill="#464646"/>
<path d="M58.4249 19L54.6251 13.325L52.8252 15.1V19H49.4754V0.750031H52.8252V11.825L58.075 5.92503H61.6497L56.775 11.475L61.9997 19H58.4249Z" fill="#464646"/>
</svg>
